<mxfile host="app.diagrams.net" modified="2024-05-04T08:57:34.453Z" agent="Mozilla/5.0 (Windows NT 10.0; Win64; x64) AppleWebKit/537.36 (KHTML, like Gecko) Chrome/124.0.0.0 Safari/537.36 Edg/124.0.0.0" etag="hQ8sKLR3mY0HXoEjd9ml" version="24.3.1" type="github">
  <diagram id="C5RBs43oDa-KdzZeNtuy" name="Page-1">
    <mxGraphModel dx="996" dy="586" grid="0" gridSize="10" guides="1" tooltips="1" connect="1" arrows="1" fold="1" page="0" pageScale="1" pageWidth="827" pageHeight="1169" math="0" shadow="0">
      <root>
        <mxCell id="WIyWlLk6GJQsqaUBKTNV-0" />
        <mxCell id="WIyWlLk6GJQsqaUBKTNV-1" parent="WIyWlLk6GJQsqaUBKTNV-0" />
        <mxCell id="sARCSx4Nr_wP6cBu3DcG-6" value="" style="edgeStyle=orthogonalEdgeStyle;rounded=0;orthogonalLoop=1;jettySize=auto;html=1;" edge="1" parent="WIyWlLk6GJQsqaUBKTNV-1" source="sARCSx4Nr_wP6cBu3DcG-0" target="sARCSx4Nr_wP6cBu3DcG-5">
          <mxGeometry relative="1" as="geometry" />
        </mxCell>
        <mxCell id="sARCSx4Nr_wP6cBu3DcG-0" value="进入每日一句模块" style="rounded=1;whiteSpace=wrap;html=1;absoluteArcSize=1;arcSize=14;strokeWidth=2;fontSize=14;" vertex="1" parent="WIyWlLk6GJQsqaUBKTNV-1">
          <mxGeometry x="227.5" y="171" width="125" height="50" as="geometry" />
        </mxCell>
        <mxCell id="sARCSx4Nr_wP6cBu3DcG-3" value="" style="edgeStyle=orthogonalEdgeStyle;rounded=0;orthogonalLoop=1;jettySize=auto;html=1;" edge="1" parent="WIyWlLk6GJQsqaUBKTNV-1" source="sARCSx4Nr_wP6cBu3DcG-1" target="sARCSx4Nr_wP6cBu3DcG-0">
          <mxGeometry relative="1" as="geometry" />
        </mxCell>
        <mxCell id="sARCSx4Nr_wP6cBu3DcG-1" value="开始" style="strokeWidth=2;html=1;shape=mxgraph.flowchart.terminator;whiteSpace=wrap;fontSize=14;" vertex="1" parent="WIyWlLk6GJQsqaUBKTNV-1">
          <mxGeometry x="240" y="70" width="100" height="60" as="geometry" />
        </mxCell>
        <mxCell id="sARCSx4Nr_wP6cBu3DcG-2" value="结束" style="strokeWidth=2;html=1;shape=mxgraph.flowchart.terminator;whiteSpace=wrap;fontSize=14;" vertex="1" parent="WIyWlLk6GJQsqaUBKTNV-1">
          <mxGeometry x="240" y="551" width="100" height="60" as="geometry" />
        </mxCell>
        <mxCell id="sARCSx4Nr_wP6cBu3DcG-4" value="点击播放不同语速的音频" style="rounded=1;whiteSpace=wrap;html=1;absoluteArcSize=1;arcSize=14;strokeWidth=2;fontSize=14;" vertex="1" parent="WIyWlLk6GJQsqaUBKTNV-1">
          <mxGeometry x="108" y="441" width="110" height="50" as="geometry" />
        </mxCell>
        <mxCell id="sARCSx4Nr_wP6cBu3DcG-8" value="" style="edgeStyle=orthogonalEdgeStyle;rounded=0;orthogonalLoop=1;jettySize=auto;html=1;" edge="1" parent="WIyWlLk6GJQsqaUBKTNV-1" source="sARCSx4Nr_wP6cBu3DcG-5" target="sARCSx4Nr_wP6cBu3DcG-7">
          <mxGeometry relative="1" as="geometry" />
        </mxCell>
        <mxCell id="sARCSx4Nr_wP6cBu3DcG-5" value="点击某一句" style="rounded=1;whiteSpace=wrap;html=1;absoluteArcSize=1;arcSize=14;strokeWidth=2;fontSize=14;" vertex="1" parent="WIyWlLk6GJQsqaUBKTNV-1">
          <mxGeometry x="235" y="259" width="110" height="50" as="geometry" />
        </mxCell>
        <mxCell id="sARCSx4Nr_wP6cBu3DcG-9" value="" style="edgeStyle=orthogonalEdgeStyle;rounded=0;orthogonalLoop=1;jettySize=auto;html=1;exitX=0.5;exitY=1;exitDx=0;exitDy=0;" edge="1" parent="WIyWlLk6GJQsqaUBKTNV-1" source="sARCSx4Nr_wP6cBu3DcG-7" target="sARCSx4Nr_wP6cBu3DcG-4">
          <mxGeometry relative="1" as="geometry" />
        </mxCell>
        <mxCell id="sARCSx4Nr_wP6cBu3DcG-13" style="edgeStyle=orthogonalEdgeStyle;rounded=0;orthogonalLoop=1;jettySize=auto;html=1;exitX=0.5;exitY=1;exitDx=0;exitDy=0;" edge="1" parent="WIyWlLk6GJQsqaUBKTNV-1" source="sARCSx4Nr_wP6cBu3DcG-7" target="sARCSx4Nr_wP6cBu3DcG-10">
          <mxGeometry relative="1" as="geometry" />
        </mxCell>
        <mxCell id="sARCSx4Nr_wP6cBu3DcG-15" style="edgeStyle=orthogonalEdgeStyle;rounded=0;orthogonalLoop=1;jettySize=auto;html=1;entryX=0.5;entryY=0;entryDx=0;entryDy=0;exitX=0.5;exitY=1;exitDx=0;exitDy=0;" edge="1" parent="WIyWlLk6GJQsqaUBKTNV-1" source="sARCSx4Nr_wP6cBu3DcG-7" target="sARCSx4Nr_wP6cBu3DcG-14">
          <mxGeometry relative="1" as="geometry" />
        </mxCell>
        <mxCell id="sARCSx4Nr_wP6cBu3DcG-7" value="跳转详细页面" style="rounded=1;whiteSpace=wrap;html=1;absoluteArcSize=1;arcSize=14;strokeWidth=2;fontSize=14;" vertex="1" parent="WIyWlLk6GJQsqaUBKTNV-1">
          <mxGeometry x="235" y="348" width="110" height="50" as="geometry" />
        </mxCell>
        <mxCell id="sARCSx4Nr_wP6cBu3DcG-18" value="" style="edgeStyle=orthogonalEdgeStyle;rounded=0;orthogonalLoop=1;jettySize=auto;html=1;" edge="1" parent="WIyWlLk6GJQsqaUBKTNV-1" source="sARCSx4Nr_wP6cBu3DcG-10" target="sARCSx4Nr_wP6cBu3DcG-2">
          <mxGeometry relative="1" as="geometry" />
        </mxCell>
        <mxCell id="sARCSx4Nr_wP6cBu3DcG-10" value="点击配音" style="rounded=1;whiteSpace=wrap;html=1;absoluteArcSize=1;arcSize=14;strokeWidth=2;fontSize=14;" vertex="1" parent="WIyWlLk6GJQsqaUBKTNV-1">
          <mxGeometry x="235" y="441" width="110" height="50" as="geometry" />
        </mxCell>
        <mxCell id="sARCSx4Nr_wP6cBu3DcG-14" value="点赞他人配音" style="rounded=1;whiteSpace=wrap;html=1;absoluteArcSize=1;arcSize=14;strokeWidth=2;fontSize=14;" vertex="1" parent="WIyWlLk6GJQsqaUBKTNV-1">
          <mxGeometry x="362" y="441" width="110" height="50" as="geometry" />
        </mxCell>
        <mxCell id="sARCSx4Nr_wP6cBu3DcG-17" style="edgeStyle=orthogonalEdgeStyle;rounded=0;orthogonalLoop=1;jettySize=auto;html=1;entryX=0.5;entryY=0;entryDx=0;entryDy=0;entryPerimeter=0;exitX=0.5;exitY=1;exitDx=0;exitDy=0;" edge="1" parent="WIyWlLk6GJQsqaUBKTNV-1" source="sARCSx4Nr_wP6cBu3DcG-4" target="sARCSx4Nr_wP6cBu3DcG-2">
          <mxGeometry relative="1" as="geometry" />
        </mxCell>
        <mxCell id="sARCSx4Nr_wP6cBu3DcG-19" style="edgeStyle=orthogonalEdgeStyle;rounded=0;orthogonalLoop=1;jettySize=auto;html=1;entryX=0.5;entryY=0;entryDx=0;entryDy=0;entryPerimeter=0;exitX=0.5;exitY=1;exitDx=0;exitDy=0;" edge="1" parent="WIyWlLk6GJQsqaUBKTNV-1" source="sARCSx4Nr_wP6cBu3DcG-14" target="sARCSx4Nr_wP6cBu3DcG-2">
          <mxGeometry relative="1" as="geometry" />
        </mxCell>
      </root>
    </mxGraphModel>
  </diagram>
</mxfile>
